<svg xmlns="http://www.w3.org/2000/svg" viewBox="0 0 566 421.1"><polyline points="543.3 78.6 543.3 376.3 332.8 376.3" style="fill:none;stroke:blue;stroke-miterlimit:10;stroke-dasharray:6"/><text transform="translate(339.7 409.8)" style="isolation:isolate;font-size:9.899999618530273px;fill:blue;font-family:IBMPlexMono-Regular, IBM Plex Mono;letter-spacing:-0.10101010490225223em"><tspan xml:space="preserve"> 13 × 19 inches</tspan></text><text transform="translate(339.7 365.8)" style="isolation:isolate;font-size:9.899999618530273px;fill:blue;font-family:IBMPlexMono-Regular, IBM Plex Mono;letter-spacing:-0.10101010490225223em"><tspan xml:space="preserve"> 11.7 × 16.5 inches</tspan></text><text transform="translate(515 369.6)" style="isolation:isolate;font-size:16px;fill:blue;font-family:ArialMT, Arial">A3</text><text transform="translate(528 412.6)" style="isolation:isolate;font-size:16px;fill:blue;font-family:ArialMT, Arial">A3+</text><path d="M974.3,330.3V749.2H678.6V330.3H974.3m1-1H677.6V750.2H975.3V329.3Z" transform="translate(-677.4 -329.3)" style="fill:blue"/><polyline points="211.3 0.6 211.3 298.3 0.8 298.3" style="fill:none;stroke:blue;stroke-miterlimit:10;stroke-dasharray:6"/><line x1="251.1" y1="0.9" x2="251.1" y2="3.9" style="fill:none;stroke:#000;stroke-miterlimit:10"/><line x1="251.1" y1="9.8" x2="251.1" y2="349.2" style="fill:none;stroke:blue;stroke-miterlimit:10;stroke-dasharray:5.900000095367432,5.900000095367432"/><polyline points="251.1 352.2 251.1 355.2 248.1 355.2" style="fill:none;stroke:blue;stroke-miterlimit:10"/><line x1="242.2" y1="355.2" x2="0.6" y2="355.2" style="fill:none;stroke:blue;stroke-miterlimit:10;stroke-dasharray:6"/><g style="isolation:isolate"><path d="M693.9,739.1v-.7h2v-5.6h-.1l-1.7,1.6-.5-.5,1.8-1.7h1.3v6.2h1.8v.7Z" transform="translate(-677.4 -329.3)" style="fill:blue"/><path d="M701,739.2h-1a2,2,0,0,1-.7-.6,2.2,2.2,0,0,1-.5-.8,3.6,3.6,0,0,1-.2-1.1,4,4,0,0,1,.3-1.5,3.4,3.4,0,0,1,.6-1.2,3.9,3.9,0,0,1,.8-1l.8-.7h1.1l-1,.8-.8.8a4.1,4.1,0,0,0-.5.9,3.6,3.6,0,0,0-.4,1.1h0a2.3,2.3,0,0,1,.7-.7,1.5,1.5,0,0,1,1-.3l.9.2.6.4a1.6,1.6,0,0,1,.4.7,2,2,0,0,1,.2.9,2.9,2.9,0,0,1-.2.9,1.6,1.6,0,0,1-.4.7l-.8.5Zm0-.7a1.5,1.5,0,0,0,1.1-.4,1.5,1.5,0,0,0,.4-1h0a1.6,1.6,0,0,0-.4-1.1,1.5,1.5,0,0,0-1.1-.4,1.4,1.4,0,0,0-1.5,1.5h0a1.2,1.2,0,0,0,.4,1A1.2,1.2,0,0,0,701,738.5Z" transform="translate(-677.4 -329.3)" style="fill:blue"/><path d="M705.9,739.2c-.3,0-.5,0-.6-.2s-.1-.2-.1-.4v-.2a.6.6,0,0,1,.1-.4,1,1,0,0,1,1.2,0,.6.6,0,0,1,.1.4v.2c0,.2,0,.3-.1.4S706.2,739.2,705.9,739.2Z" transform="translate(-677.4 -329.3)" style="fill:blue"/><path d="M712.8,732.9h-3.1l-.2,2.7h.1a3.4,3.4,0,0,1,.6-.6l.9-.2.8.2.7.4a4.3,4.3,0,0,1,.4.7,2.2,2.2,0,0,1,.1.9,2.8,2.8,0,0,1-.1.9,2.6,2.6,0,0,1-1.2,1.2H710l-.6-.2-.5-.4-.3-.4.6-.5.3.4.3.3h1a1.4,1.4,0,0,0,1.1-.4,1.2,1.2,0,0,0,.4-1h0a1.4,1.4,0,0,0-.4-1.1,1.8,1.8,0,0,0-1.1-.4l-.8.2-.5.4h-.7l.3-3.8h3.7Z" transform="translate(-677.4 -329.3)" style="fill:blue"/><path d="M720.7,736.6l-1.6,1.6-.5-.5,1.6-1.6-1.6-1.6.5-.5,1.6,1.6,1.6-1.6.5.5-1.6,1.6,1.6,1.6-.5.5Z" transform="translate(-677.4 -329.3)" style="fill:blue"/><path d="M732.9,739.1h-4.6v-.8l2.3-2.1a3.8,3.8,0,0,0,.9-.9,2.3,2.3,0,0,0,.3-1.1h0a1.2,1.2,0,0,0-.3-.9,1.2,1.2,0,0,0-1-.4,1.7,1.7,0,0,0-1,.3,1.9,1.9,0,0,0-.5.9l-.7-.3a1.4,1.4,0,0,1,.2-.6c.2-.2.3-.4.5-.5l.6-.4h1.8a1.8,1.8,0,0,1,.7.5.9.9,0,0,1,.4.6,1.9,1.9,0,0,1,.2.8c0,.3-.1.5-.1.7a1.6,1.6,0,0,1-.4.7l-.4.6-.7.6-1.9,1.7h3.7Z" transform="translate(-677.4 -329.3)" style="fill:blue"/><path d="M735.2,735.1a1.6,1.6,0,0,0,1.1-.3.9.9,0,0,0,.4-.8h0a.8.8,0,0,0-.4-.8,1.2,1.2,0,0,0-.9-.3,1.6,1.6,0,0,0-.9.3,1,1,0,0,0-.5.6l-.7-.5c.1-.1.2-.3.4-.4l.4-.4.6-.2h1.6l.6.3.5.6a1.9,1.9,0,0,1,.2.7,3.5,3.5,0,0,1-.1.6l-.3.5-.5.3-.5.2h0l.6.2.4.3.4.5a1.7,1.7,0,0,1,.1.7,1.9,1.9,0,0,1-.2.8,1.8,1.8,0,0,1-.5.7l-.7.4h-1.8l-.6-.2-.5-.4c-.1-.1-.2-.3-.4-.4l.7-.5.3.4.3.3h1a1.6,1.6,0,0,0,1.1-.3,1.2,1.2,0,0,0,.4-1h0a1,1,0,0,0-.4-.9,1.6,1.6,0,0,0-1.1-.3h-.8v-.8Z" transform="translate(-677.4 -329.3)" style="fill:blue"/><path d="M740.5,739.2c-.3,0-.5,0-.6-.2a.5.5,0,0,1-.2-.4v-.2a.8.8,0,0,1,.2-.4.8.8,0,0,1,.6-.2.6.6,0,0,1,.5.2.4.4,0,0,1,.2.4v.2c0,.2,0,.3-.2.4S740.8,739.2,740.5,739.2Z" transform="translate(-677.4 -329.3)" style="fill:blue"/><path d="M746.2,739.1v-1.3h-3.4V737l3-4.8H747v4.9h1v.7h-1v1.3Zm-2.7-2h2.7v-4.2h0Z" transform="translate(-677.4 -329.3)" style="fill:blue"/><path d="M753.4,738.4h1.8v-3.7h-1.8V734H756v4.4h1.7v.7h-4.3Zm2.2-5.5-.5-.2a.4.4,0,0,1-.1-.3v-.2a.4.4,0,0,1,.1-.3l.5-.2.5.2a.4.4,0,0,1,.1.3v.2a.4.4,0,0,1-.1.3Z" transform="translate(-677.4 -329.3)" style="fill:blue"/><path d="M758.2,739.1V734h.8v.8h.1l.2-.3q0-.2.3-.3a.5.5,0,0,1,.4-.2h.5a1.7,1.7,0,0,1,1.3.5,2,2,0,0,1,.5,1.4v3.3h-.8V736a1.8,1.8,0,0,0-.3-1.1,1.2,1.2,0,0,0-.9-.3h-.9l-.3.3c0,.2-.1.3-.1.5v3.5Z" transform="translate(-677.4 -329.3)" style="fill:blue"/><path d="M765.4,739.2a1.6,1.6,0,0,1-1-.2l-.8-.5a2,2,0,0,1-.4-.8,4.3,4.3,0,0,1-.2-1.1,3.6,3.6,0,0,1,.2-1.1,2.6,2.6,0,0,1,.5-.9,1.8,1.8,0,0,1,.7-.5l.9-.2a2.8,2.8,0,0,1,1.3.3,1.5,1.5,0,0,1,.6.9l-.6.3c-.1-.3-.2-.5-.5-.6s-.4-.2-.8-.2h-.6l-.4.3a.5.5,0,0,0-.3.5,1.3,1.3,0,0,0-.1.6v.9a1.3,1.3,0,0,0,.1.6.5.5,0,0,0,.3.5c.1.2.2.3.4.3l.7.2a1.1,1.1,0,0,0,.8-.3c.2-.1.4-.4.6-.6l.5.3a1.6,1.6,0,0,1-.7.9A2.1,2.1,0,0,1,765.4,739.2Z" transform="translate(-677.4 -329.3)" style="fill:blue"/><path d="M768.1,731.8h.8v3h.1c0-.1.1-.2.1-.3l.3-.3.5-.2h.5a1.9,1.9,0,0,1,1.3.5,2,2,0,0,1,.5,1.4v3.3h-.8V736a1.8,1.8,0,0,0-.3-1.1,1.2,1.2,0,0,0-.9-.3h-.9l-.3.3a.9.9,0,0,0-.1.5v3.5h-.8Z" transform="translate(-677.4 -329.3)" style="fill:blue"/><path d="M775.1,739.2a1.3,1.3,0,0,1-.9-.2l-.8-.5a2.2,2.2,0,0,1-.5-.8,4.1,4.1,0,0,1-.1-1.1,3.7,3.7,0,0,1,.1-1.1,2.6,2.6,0,0,1,.5-.9l.7-.5,1-.2.9.2.8.5a2,2,0,0,1,.4.8,3,3,0,0,1,.2,1v.4h-3.8v.2a1.3,1.3,0,0,0,.1.6l.3.5a.5.5,0,0,0,.5.3l.6.2a1.2,1.2,0,0,0,.9-.3,1.2,1.2,0,0,0,.6-.6l.6.4a2,2,0,0,1-.8.8A2.3,2.3,0,0,1,775.1,739.2Zm0-4.7-.6.2a.9.9,0,0,0-.5.3l-.3.5a1.3,1.3,0,0,0-.1.6h2.9a1.5,1.5,0,0,0-.1-.7l-.3-.4c-.1-.2-.2-.3-.4-.3Z" transform="translate(-677.4 -329.3)" style="fill:blue"/><path d="M780.1,739.2l-1.4-.2a3.9,3.9,0,0,1-1-.8l.5-.4.8.6,1.1.2,1-.2a.9.9,0,0,0,.3-.7v-.3c-.1-.1-.2-.2-.2-.3h-.7l-.8-.2h-.5a1.1,1.1,0,0,1-.6-.2.8.8,0,0,1-.4-.4.8.8,0,0,1-.2-.7,1.7,1.7,0,0,1,.1-.7l.5-.4a.7.7,0,0,1,.6-.3h.8l1.2.2.9.6-.5.5-.2-.2-.3-.2-.5-.2H780c-.4,0-.7,0-.9.2a.6.6,0,0,0-.3.6v.3l.2.2h2l.6.3a.8.8,0,0,1,.4.4c.2.1.2.4.2.6a1.3,1.3,0,0,1-.6,1.2A2.4,2.4,0,0,1,780.1,739.2Z" transform="translate(-677.4 -329.3)" style="fill:blue"/></g><g style="isolation:isolate"><path d="M689,676.1v-.7h1.9v-5.6h0l-1.8,1.6-.5-.5,1.9-1.7h1.3v6.2h1.8v.7Z" transform="translate(-677.4 -329.3)" style="fill:blue"/><path d="M695.7,672.1a1.6,1.6,0,0,0,1.1-.3,1.2,1.2,0,0,0,.4-.8h0a.8.8,0,0,0-.4-.8,1.5,1.5,0,0,0-1.8,0,1.7,1.7,0,0,0-.6.6l-.6-.5.3-.4.5-.4.6-.2h1.6l.6.3.5.6a1.7,1.7,0,0,1,.1.7c0,.3,0,.5-.1.6a.5.5,0,0,1-.3.5l-.4.3-.5.2h0l.5.2.5.3.4.5c0,.2.1.5.1.7a1.9,1.9,0,0,1-.2.8,1.8,1.8,0,0,1-.5.7l-.7.4H695l-.6-.2-.5-.4-.4-.4.6-.5.3.4.4.3h1a1.6,1.6,0,0,0,1.1-.3,1.2,1.2,0,0,0,.4-1h0a1,1,0,0,0-.4-.9,1.6,1.6,0,0,0-1.1-.3H695v-.8Z" transform="translate(-677.4 -329.3)" style="fill:blue"/><path d="M701,676.2c-.3,0-.5,0-.6-.2a.5.5,0,0,1-.2-.4v-.2a.8.8,0,0,1,.2-.4.8.8,0,0,1,.6-.2l.5.2a.8.8,0,0,1,.2.4v.2a.5.5,0,0,1-.2.4C701.4,676.2,701.2,676.2,701,676.2Z" transform="translate(-677.4 -329.3)" style="fill:blue"/><path d="M708.2,671.7a3.6,3.6,0,0,1-.2,1.5,13.4,13.4,0,0,1-.6,1.2,3.9,3.9,0,0,1-.8,1l-.9.7h-1l1-.8a2.7,2.7,0,0,0,.7-.8,2.4,2.4,0,0,0,.6-.9,3.6,3.6,0,0,0,.4-1.1h-.1c-.1.3-.4.5-.6.7a1.8,1.8,0,0,1-1.1.3h-.8a1.8,1.8,0,0,1-.7-.5l-.4-.6a2.8,2.8,0,0,1-.1-.9,2.2,2.2,0,0,1,.1-.9,2.2,2.2,0,0,1,.5-.8l.7-.4a1.6,1.6,0,0,1,1-.2l1,.2a1.8,1.8,0,0,1,.7.5,2.2,2.2,0,0,1,.5.8A4.1,4.1,0,0,1,708.2,671.7Zm-2.3,1.1a1.4,1.4,0,0,0,1.1-.4,1.2,1.2,0,0,0,.4-1.1h0a1.2,1.2,0,0,0-.4-1.1,1.7,1.7,0,0,0-2.2,0,1.2,1.2,0,0,0-.4,1.1h0a1.2,1.2,0,0,0,.4,1.1A1.4,1.4,0,0,0,705.9,672.8Z" transform="translate(-677.4 -329.3)" style="fill:blue"/><path d="M715.8,673.6l-1.6,1.6-.5-.5,1.6-1.6-1.6-1.6.5-.5,1.6,1.6,1.6-1.6.5.5-1.6,1.6,1.6,1.6-.5.5Z" transform="translate(-677.4 -329.3)" style="fill:blue"/><path d="M723.5,676.1v-.7h2v-5.6h-.1l-1.7,1.6-.5-.5,1.8-1.7h1.3v6.2h1.9v.7Z" transform="translate(-677.4 -329.3)" style="fill:blue"/><path d="M732.9,671.7a3.6,3.6,0,0,1-.2,1.5l-.6,1.2a3.9,3.9,0,0,1-.8,1l-.9.7h-1l1-.8a2.7,2.7,0,0,0,.7-.8,2.4,2.4,0,0,0,.6-.9,3.6,3.6,0,0,0,.4-1.1H732c-.1.3-.4.5-.6.7a1.8,1.8,0,0,1-1.1.3h-.8a1.8,1.8,0,0,1-.7-.5l-.4-.6a2.8,2.8,0,0,1-.1-.9,2.2,2.2,0,0,1,.1-.9,2.2,2.2,0,0,1,.5-.8l.7-.4a1.6,1.6,0,0,1,1-.2l1,.2a1.8,1.8,0,0,1,.7.5,2.2,2.2,0,0,1,.5.8A4.1,4.1,0,0,1,732.9,671.7Zm-2.3,1.1a1.4,1.4,0,0,0,1.1-.4,1.2,1.2,0,0,0,.4-1.1h0a1.2,1.2,0,0,0-.4-1.1,1.7,1.7,0,0,0-2.2,0,1.2,1.2,0,0,0-.4,1.1h0a1.2,1.2,0,0,0,.4,1.1A1.4,1.4,0,0,0,730.6,672.8Z" transform="translate(-677.4 -329.3)" style="fill:blue"/><path d="M735.5,676.2c-.2,0-.4,0-.5-.2a.5.5,0,0,1-.2-.4v-.2a.8.8,0,0,1,.2-.4l.5-.2a.8.8,0,0,1,.6.2.8.8,0,0,1,.2.4v.2a.5.5,0,0,1-.2.4C736,676.2,735.8,676.2,735.5,676.2Z" transform="translate(-677.4 -329.3)" style="fill:blue"/><path d="M739.2,676.1l2.7-6.2h-3v1.3h-.7v-2h4.6v.7l-2.7,6.2Z" transform="translate(-677.4 -329.3)" style="fill:blue"/><path d="M748.4,675.4h1.9v-3.7h-1.9V671h2.7v4.4h1.7v.7h-4.4Zm2.3-5.5a.6.6,0,0,1-.5-.2.4.4,0,0,1-.1-.3v-.2a.4.4,0,0,1,.1-.3.6.6,0,0,1,.5-.2l.5.2a.4.4,0,0,1,.1.3v.2a.4.4,0,0,1-.1.3Z" transform="translate(-677.4 -329.3)" style="fill:blue"/><path d="M753.3,676.1V671h.8v.8h0l.2-.3.3-.3.4-.2h.6a2.1,2.1,0,0,1,1.3.5,2,2,0,0,1,.5,1.4v3.3h-.8V673a1.8,1.8,0,0,0-.3-1.1,1.2,1.2,0,0,0-.9-.3h-.9l-.3.3a.9.9,0,0,0-.1.5v3.5Z" transform="translate(-677.4 -329.3)" style="fill:blue"/><path d="M760.4,676.2a1.6,1.6,0,0,1-1-.2,1.8,1.8,0,0,1-.7-.5,2,2,0,0,1-.4-.8,4.3,4.3,0,0,1-.2-1.1,3.6,3.6,0,0,1,.2-1.1,2.5,2.5,0,0,1,.4-.9l.7-.5,1-.2a2.1,2.1,0,0,1,1.2.3,1.6,1.6,0,0,1,.7.9l-.6.3a1,1,0,0,0-.5-.6,1.1,1.1,0,0,0-.8-.2h-.6l-.5.3-.3.5v2.1l.3.5c.2.2.3.3.5.3l.6.2a1.2,1.2,0,0,0,.9-.3,1.5,1.5,0,0,0,.5-.6l.6.3a2.2,2.2,0,0,1-.7.9A2.8,2.8,0,0,1,760.4,676.2Z" transform="translate(-677.4 -329.3)" style="fill:blue"/><path d="M763.2,668.8h.8v3h0l.2-.3.3-.3.4-.2h.6a2.1,2.1,0,0,1,1.3.5,2,2,0,0,1,.4,1.4v3.3h-.8V673a1.8,1.8,0,0,0-.3-1.1,1.2,1.2,0,0,0-.9-.3h-.8c-.2.1-.2.2-.3.3a.9.9,0,0,0-.1.5v3.5h-.8Z" transform="translate(-677.4 -329.3)" style="fill:blue"/><path d="M770.2,676.2a1.6,1.6,0,0,1-1-.2,1.8,1.8,0,0,1-.7-.5,2.2,2.2,0,0,1-.5-.8,4.3,4.3,0,0,1-.2-1.1,3.6,3.6,0,0,1,.2-1.1,2.6,2.6,0,0,1,.5-.9,1.8,1.8,0,0,1,.7-.5l1-.2.9.2a1.8,1.8,0,0,1,.7.5,2.2,2.2,0,0,1,.5.8,3.1,3.1,0,0,1,.1,1v.4h-3.8v.2a1.4,1.4,0,0,0,.2.6,1.2,1.2,0,0,0,.8.8l.6.2a1.4,1.4,0,0,0,.9-.3c.3-.1.4-.4.6-.6l.6.4a2,2,0,0,1-.8.8A2.8,2.8,0,0,1,770.2,676.2Zm0-4.7a2.8,2.8,0,0,0-1.1.5.5.5,0,0,0-.3.5,1.4,1.4,0,0,0-.2.6h3c0-.3-.1-.5-.1-.7l-.3-.4a.5.5,0,0,0-.5-.3Z" transform="translate(-677.4 -329.3)" style="fill:blue"/><path d="M775.1,676.2l-1.4-.2a3.4,3.4,0,0,1-.9-.8l.5-.4.8.6,1,.2,1-.2a.8.8,0,0,0,.4-.7.4.4,0,0,0-.1-.3c0-.1-.1-.2-.2-.3h-.6l-.8-.2h-.6l-.6-.2c-.1-.1-.3-.2-.4-.4a1.4,1.4,0,0,1-.2-.7,1.9,1.9,0,0,1,.2-.7c.1-.1.2-.3.4-.4a.9.9,0,0,1,.7-.3h.8l1.2.2.9.6-.5.5-.3-.2c0-.1-.2-.2-.3-.2l-.4-.2h-.6a1.6,1.6,0,0,0-1,.2.6.6,0,0,0-.3.6.4.4,0,0,0,.1.3.2.2,0,0,0,.2.2h2l.6.3c.1.1.3.2.4.4a1.1,1.1,0,0,1,.2.6,1.3,1.3,0,0,1-.6,1.2A2.5,2.5,0,0,1,775.1,676.2Z" transform="translate(-677.4 -329.3)" style="fill:blue"/></g><g style="isolation:isolate"><path d="M693.9,619.1v-.7h2v-5.6h-.1l-1.7,1.6-.5-.5,1.8-1.7h1.3v6.2h1.8v.7Z" transform="translate(-677.4 -329.3)" style="fill:blue"/><path d="M698.8,619.1v-.7h2v-5.6h-.1l-1.7,1.6-.5-.5,1.8-1.7h1.3v6.2h1.9v.7Z" transform="translate(-677.4 -329.3)" style="fill:blue"/><path d="M705.9,619.2c-.3,0-.5,0-.6-.2s-.1-.2-.1-.4v-.2a.6.6,0,0,1,.1-.4,1,1,0,0,1,1.2,0,.6.6,0,0,1,.1.4v.2c0,.2,0,.3-.1.4S706.2,619.2,705.9,619.2Z" transform="translate(-677.4 -329.3)" style="fill:blue"/><path d="M709.6,619.1l2.7-6.2h-3v1.3h-.8v-2h4.6v.7l-2.6,6.2Z" transform="translate(-677.4 -329.3)" style="fill:blue"/><path d="M720.7,616.6l-1.6,1.6-.5-.5,1.6-1.6-1.6-1.6.5-.5,1.6,1.6,1.6-1.6.5.5-1.6,1.6,1.6,1.6-.5.5Z" transform="translate(-677.4 -329.3)" style="fill:blue"/><path d="M728.5,619.1v-.7h2v-5.6h-.1l-1.8,1.6-.4-.5,1.8-1.7h1.3v6.2h1.8v.7Z" transform="translate(-677.4 -329.3)" style="fill:blue"/><path d="M735.5,619.2h-.9a2.4,2.4,0,0,1-.8-.6,2,2,0,0,1-.4-.8,3.6,3.6,0,0,1-.2-1.1,7.7,7.7,0,0,1,.2-1.5l.6-1.2.8-1,.9-.7h1.1l-1,.8-.8.8-.6.9-.3,1.1h0a2.3,2.3,0,0,1,.7-.7,1.5,1.5,0,0,1,1-.3l.8.2.7.4a1.6,1.6,0,0,1,.4.7,2,2,0,0,1,.2.9,2.9,2.9,0,0,1-.2.9,2.6,2.6,0,0,1-1.2,1.2Zm0-.7a1.2,1.2,0,0,0,1.1-.4,1.2,1.2,0,0,0,.4-1h0a1.4,1.4,0,0,0-1.5-1.5,1.5,1.5,0,0,0-1.1.4,1.6,1.6,0,0,0-.4,1.1h0a1.5,1.5,0,0,0,.4,1A1.5,1.5,0,0,0,735.5,618.5Z" transform="translate(-677.4 -329.3)" style="fill:blue"/><path d="M740.5,619.2c-.3,0-.5,0-.6-.2a.5.5,0,0,1-.2-.4v-.2a.8.8,0,0,1,.2-.4.8.8,0,0,1,.6-.2.6.6,0,0,1,.5.2.4.4,0,0,1,.2.4v.2c0,.2,0,.3-.2.4S740.8,619.2,740.5,619.2Z" transform="translate(-677.4 -329.3)" style="fill:blue"/><path d="M747.4,612.9h-3.1l-.2,2.7h.1a3.4,3.4,0,0,1,.6-.6l.8-.2.9.2.6.4a1.8,1.8,0,0,1,.5.7,2.2,2.2,0,0,1,.1.9,2.8,2.8,0,0,1-.1.9,2.6,2.6,0,0,1-1.2,1.2h-1.8l-.6-.2-.5-.4-.3-.4.6-.5.3.4.3.3h1a1.4,1.4,0,0,0,1.1-.4,1.5,1.5,0,0,0,.4-1h0a1.4,1.4,0,0,0-1.5-1.5,1.5,1.5,0,0,0-.8.2l-.5.4h-.7l.2-3.8h3.8Z" transform="translate(-677.4 -329.3)" style="fill:blue"/><path d="M753.4,618.4h1.8v-3.7h-1.8V614H756v4.4h1.7v.7h-4.3Zm2.2-5.5-.5-.2a.4.4,0,0,1-.1-.3v-.2a.4.4,0,0,1,.1-.3l.5-.2.5.2a.4.4,0,0,1,.1.3v.2a.4.4,0,0,1-.1.3Z" transform="translate(-677.4 -329.3)" style="fill:blue"/><path d="M758.2,619.1V614h.8v.8h.1l.2-.3q0-.2.3-.3a.5.5,0,0,1,.4-.2h.5a1.7,1.7,0,0,1,1.3.5,2,2,0,0,1,.5,1.4v3.3h-.8V616a1.8,1.8,0,0,0-.3-1.1,1.2,1.2,0,0,0-.9-.3h-.9l-.3.3c0,.2-.1.3-.1.5v3.5Z" transform="translate(-677.4 -329.3)" style="fill:blue"/><path d="M765.4,619.2a1.6,1.6,0,0,1-1-.2l-.8-.5a2,2,0,0,1-.4-.8,4.3,4.3,0,0,1-.2-1.1,3.6,3.6,0,0,1,.2-1.1,2.6,2.6,0,0,1,.5-.9,1.8,1.8,0,0,1,.7-.5l.9-.2a2.8,2.8,0,0,1,1.3.3,1.5,1.5,0,0,1,.6.9l-.6.3c-.1-.3-.2-.5-.5-.6s-.4-.2-.8-.2h-.6l-.4.3a.5.5,0,0,0-.3.5,1.3,1.3,0,0,0-.1.6v.9a1.3,1.3,0,0,0,.1.6.5.5,0,0,0,.3.5c.1.2.2.3.4.3l.7.2a1.1,1.1,0,0,0,.8-.3c.2-.1.4-.4.6-.6l.5.3a1.6,1.6,0,0,1-.7.9A2.1,2.1,0,0,1,765.4,619.2Z" transform="translate(-677.4 -329.3)" style="fill:blue"/><path d="M768.1,611.8h.8v3h.1c0-.1.1-.2.1-.3l.3-.3.5-.2h.5a1.9,1.9,0,0,1,1.3.5,2,2,0,0,1,.5,1.4v3.3h-.8V616a1.8,1.8,0,0,0-.3-1.1,1.2,1.2,0,0,0-.9-.3h-.9l-.3.3a.9.9,0,0,0-.1.5v3.5h-.8Z" transform="translate(-677.4 -329.3)" style="fill:blue"/><path d="M775.1,619.2a1.3,1.3,0,0,1-.9-.2l-.8-.5a2.2,2.2,0,0,1-.5-.8,4.1,4.1,0,0,1-.1-1.1,3.7,3.7,0,0,1,.1-1.1,2.6,2.6,0,0,1,.5-.9l.7-.5,1-.2.9.2.8.5a2,2,0,0,1,.4.8,3,3,0,0,1,.2,1v.4h-3.8v.2a1.3,1.3,0,0,0,.1.6l.3.5a.5.5,0,0,0,.5.3l.6.2a1.2,1.2,0,0,0,.9-.3,1.2,1.2,0,0,0,.6-.6l.6.4a2,2,0,0,1-.8.8A2.3,2.3,0,0,1,775.1,619.2Zm0-4.7-.6.2a.9.9,0,0,0-.5.3l-.3.5a1.3,1.3,0,0,0-.1.6h2.9a1.5,1.5,0,0,0-.1-.7l-.3-.4c-.1-.2-.2-.3-.4-.3Z" transform="translate(-677.4 -329.3)" style="fill:blue"/><path d="M780.1,619.2l-1.4-.2a3.9,3.9,0,0,1-1-.8l.5-.4.8.6,1.1.2,1-.2a.9.9,0,0,0,.3-.7v-.3c-.1-.1-.2-.2-.2-.3h-.7l-.8-.2h-.5a1.1,1.1,0,0,1-.6-.2.8.8,0,0,1-.4-.4.8.8,0,0,1-.2-.7,1.7,1.7,0,0,1,.1-.7l.5-.4a.7.7,0,0,1,.6-.3h.8l1.2.2.9.6-.5.5-.2-.2-.3-.2-.5-.2H780c-.4,0-.7,0-.9.2a.6.6,0,0,0-.3.6v.3l.2.2h2l.6.3a.8.8,0,0,1,.4.4c.2.1.2.4.2.6a1.3,1.3,0,0,1-.6,1.2A2.4,2.4,0,0,1,780.1,619.2Z" transform="translate(-677.4 -329.3)" style="fill:blue"/></g><g style="isolation:isolate"><path d="M693.4,568.7a6.8,6.8,0,0,1-.2,1.5l-.6,1.2-.8,1-.9.7h-1.1a4.4,4.4,0,0,0,1-.8,3,3,0,0,0,.8-.8l.6-.9c.1-.3.3-.7.4-1.1h-.1l-.6.7a2,2,0,0,1-1.1.3H690a1.8,1.8,0,0,1-.7-.5,2.1,2.1,0,0,1-.4-.6,2.9,2.9,0,0,1-.2-.9,2,2,0,0,1,.2-.9,2.2,2.2,0,0,1,.5-.8l.7-.4a1.6,1.6,0,0,1,1-.2l.9.2.8.5a5.6,5.6,0,0,1,.5.8A4.1,4.1,0,0,1,693.4,568.7Zm-2.3,1.1a1.4,1.4,0,0,0,1.1-.4,1.6,1.6,0,0,0,.4-1.1h0a1.6,1.6,0,0,0-.4-1.1,1.4,1.4,0,0,0-1.1-.4,1.4,1.4,0,0,0-1.5,1.5h0a1.4,1.4,0,0,0,1.5,1.5Z" transform="translate(-677.4 -329.3)" style="fill:blue"/><path d="M696,573.2c-.3,0-.4,0-.5-.2s-.2-.2-.2-.4v-.2a.4.4,0,0,1,.2-.4.6.6,0,0,1,.5-.2.8.8,0,0,1,.6.2.8.8,0,0,1,.2.4v.2a.5.5,0,0,1-.2.4C696.5,573.2,696.3,573.2,696,573.2Z" transform="translate(-677.4 -329.3)" style="fill:blue"/><path d="M701,573.2h-1.1l-.8-.4a1.6,1.6,0,0,1-.4-.7,1.9,1.9,0,0,1-.2-.8,2.1,2.1,0,0,1,.4-1.1,2.1,2.1,0,0,1,1-.6h0a1.6,1.6,0,0,1-.8-.6,1.2,1.2,0,0,1-.4-1,1.4,1.4,0,0,1,.6-1.2,2.3,2.3,0,0,1,1.7-.5,2.1,2.1,0,0,1,1.6.5,1.4,1.4,0,0,1,.6,1.2,1.5,1.5,0,0,1-.3,1,2.4,2.4,0,0,1-.9.6h0a2.1,2.1,0,0,1,1,.6,1.5,1.5,0,0,1,.4,1.1,1.9,1.9,0,0,1-.2.8,1.6,1.6,0,0,1-.4.7l-.8.4Zm0-.7a2,2,0,0,0,1.1-.3,1,1,0,0,0,.4-.9v-.2a1.3,1.3,0,0,0-.4-1,1.8,1.8,0,0,0-1.1-.3,2.1,2.1,0,0,0-1.2.3,1.3,1.3,0,0,0-.4,1v.2a1,1,0,0,0,.4.9A2.1,2.1,0,0,0,701,572.5Zm0-3.4a1.5,1.5,0,0,0,1-.2,1.2,1.2,0,0,0,.3-.9h0a1,1,0,0,0-.3-.8,1.7,1.7,0,0,0-1-.3,1.8,1.8,0,0,0-1.1.3,1,1,0,0,0-.3.8h0a1.2,1.2,0,0,0,.3.9A1.8,1.8,0,0,0,701,569.1Z" transform="translate(-677.4 -329.3)" style="fill:blue"/><path d="M710.8,570.6l-1.6,1.6-.5-.5,1.7-1.6-1.7-1.6.5-.5,1.6,1.6,1.7-1.6.4.5-1.6,1.6,1.6,1.6-.4.5Z" transform="translate(-677.4 -329.3)" style="fill:blue"/><path d="M718.6,573.1v-.7h2v-5.6h-.1l-1.7,1.6-.5-.5,1.8-1.7h1.3v6.2h1.8v.7Z" transform="translate(-677.4 -329.3)" style="fill:blue"/><path d="M725.4,569.1a1.5,1.5,0,0,0,1-.3.9.9,0,0,0,.4-.8h0a1,1,0,0,0-.3-.8,1.7,1.7,0,0,0-1-.3,1.6,1.6,0,0,0-.9.3,1,1,0,0,0-.5.6l-.6-.5c0-.1.2-.3.3-.4s.3-.2.4-.4l.6-.2h1.6l.7.3.4.6a1.9,1.9,0,0,1,.2.7,3.5,3.5,0,0,1-.1.6l-.3.5-.4.3-.6.2h0l.6.2.5.3.3.5a1.7,1.7,0,0,1,.1.7,1.1,1.1,0,0,1-.2.8,1.6,1.6,0,0,1-.4.7l-.8.4h-1.8l-.6-.2-.5-.4-.3-.4.6-.5.3.4.3.3h1a2.1,2.1,0,0,0,1.2-.3,1.5,1.5,0,0,0,.3-1h0a1.2,1.2,0,0,0-.3-.9,2.1,2.1,0,0,0-1.2-.3h-.8v-.8Z" transform="translate(-677.4 -329.3)" style="fill:blue"/><path d="M730.6,573.2c-.3,0-.5,0-.6-.2s-.1-.2-.1-.4v-.2a.6.6,0,0,1,.1-.4,1,1,0,0,1,1.2,0,.6.6,0,0,1,.1.4v.2c0,.2,0,.3-.1.4S730.9,573.2,730.6,573.2Z" transform="translate(-677.4 -329.3)" style="fill:blue"/><path d="M737.9,568.7a3.7,3.7,0,0,1-.3,1.5,2.7,2.7,0,0,1-.6,1.2,3.9,3.9,0,0,1-.8,1l-.8.7h-1.1l1-.8a3,3,0,0,0,.8-.8,4.1,4.1,0,0,0,.5-.9,3.6,3.6,0,0,0,.4-1.1h0a2.3,2.3,0,0,1-.7.7,1.7,1.7,0,0,1-1,.3h-.9l-.6-.5a2.1,2.1,0,0,1-.4-.6,2.9,2.9,0,0,1-.2-.9,1.8,1.8,0,0,1,1.4-2.1,1.5,1.5,0,0,1,.9-.2l1,.2a1.8,1.8,0,0,1,.7.5,2.2,2.2,0,0,1,.5.8A4.3,4.3,0,0,1,737.9,568.7Zm-2.4,1.1a1.4,1.4,0,0,0,1.5-1.5h0a1.4,1.4,0,0,0-1.5-1.5,1.5,1.5,0,0,0-1.1.4,1.6,1.6,0,0,0-.4,1.1h0a1.6,1.6,0,0,0,.4,1.1A1.5,1.5,0,0,0,735.5,569.8Z" transform="translate(-677.4 -329.3)" style="fill:blue"/><path d="M743.5,572.4h1.8v-3.7h-1.8V568h2.6v4.4h1.8v.7h-4.4Zm2.2-5.5c-.2,0-.4-.1-.4-.2s-.2-.2-.2-.3v-.2c0-.1.1-.2.2-.3s.2-.2.4-.2a.6.6,0,0,1,.5.2c.1.1.2.2.2.3v.2c0,.1-.1.2-.2.3A.6.6,0,0,1,745.7,566.9Z" transform="translate(-677.4 -329.3)" style="fill:blue"/><path d="M748.4,573.1V568h.8v.8h0l.2-.3.3-.3a.5.5,0,0,1,.4-.2h.5a1.7,1.7,0,0,1,1.3.5,1.6,1.6,0,0,1,.5,1.4v3.3h-.8V570a1.8,1.8,0,0,0-.3-1.1,1.2,1.2,0,0,0-.9-.3h-.9c-.1.1-.2.2-.2.3a.9.9,0,0,0-.1.5v3.5Z" transform="translate(-677.4 -329.3)" style="fill:blue"/><path d="M755.5,573.2a1.6,1.6,0,0,1-1-.2,1.8,1.8,0,0,1-.7-.5,2.2,2.2,0,0,1-.5-.8,4.1,4.1,0,0,1-.1-1.1,3.7,3.7,0,0,1,.1-1.1,2.6,2.6,0,0,1,.5-.9,1.8,1.8,0,0,1,.7-.5l1-.2a2.1,2.1,0,0,1,1.2.3,2.2,2.2,0,0,1,.7.9l-.7.3a.9.9,0,0,0-.4-.6,1.2,1.2,0,0,0-.8-.2h-.7l-.4.3-.3.5a1.3,1.3,0,0,0-.1.6v.9a1.3,1.3,0,0,0,.1.6l.3.5a.5.5,0,0,0,.5.3.8.8,0,0,0,.6.2,1.1,1.1,0,0,0,.8-.3c.3-.1.4-.4.6-.6l.5.3a1.6,1.6,0,0,1-.7.9A2.1,2.1,0,0,1,755.5,573.2Z" transform="translate(-677.4 -329.3)" style="fill:blue"/><path d="M758.2,565.8h.8v3h.1l.2-.3q0-.2.3-.3a.5.5,0,0,1,.4-.2h.5a1.7,1.7,0,0,1,1.3.5,2,2,0,0,1,.5,1.4v3.3h-.8V570a1.8,1.8,0,0,0-.3-1.1,1.2,1.2,0,0,0-.9-.3h-.9l-.3.3c0,.2-.1.3-.1.5v3.5h-.8Z" transform="translate(-677.4 -329.3)" style="fill:blue"/><path d="M765.3,573.2a1.6,1.6,0,0,1-1-.2l-.8-.5a5.6,5.6,0,0,1-.5-.8,4.1,4.1,0,0,1-.1-1.1,3.7,3.7,0,0,1,.1-1.1l.5-.9.8-.5.9-.2,1,.2.7.5a2,2,0,0,1,.4.8,3,3,0,0,1,.2,1v.4h-3.8v.2a1.3,1.3,0,0,0,.1.6l.3.5c.2.2.3.3.5.3l.7.2a1.6,1.6,0,0,0,.9-.3,1.5,1.5,0,0,0,.5-.6l.6.4a1.8,1.8,0,0,1-.7.8A2.8,2.8,0,0,1,765.3,573.2Zm-.1-4.7-.6.2c-.2,0-.3.2-.5.3l-.3.5a1.3,1.3,0,0,0-.1.6h2.9a1.5,1.5,0,0,0-.1-.7.5.5,0,0,0-.3-.4c-.1-.2-.2-.3-.4-.3Z" transform="translate(-677.4 -329.3)" style="fill:blue"/><path d="M770.2,573.2l-1.4-.2a3.9,3.9,0,0,1-1-.8l.5-.4.8.6,1.1.2,1-.2a1,1,0,0,0,.4-.7c0-.1-.1-.2-.1-.3l-.2-.3h-.6l-.8-.2h-.6l-.6-.2a.8.8,0,0,1-.4-.4,1.4,1.4,0,0,1-.2-.7,1.9,1.9,0,0,1,.2-.7c.1-.1.2-.3.4-.4a.9.9,0,0,1,.6-.3h.9l1.2.2.8.6-.5.5c0-.1-.1-.1-.2-.2l-.3-.2-.5-.2h-.6c-.4,0-.7,0-.9.2a.6.6,0,0,0-.3.6.4.4,0,0,0,.1.3.2.2,0,0,0,.2.2c0,.1.1.1.3.1h1.7l.5.3.5.4c.1.1.1.4.1.6a1.3,1.3,0,0,1-.6,1.2A2.2,2.2,0,0,1,770.2,573.2Z" transform="translate(-677.4 -329.3)" style="fill:blue"/></g><g style="isolation:isolate"><path d="M691.1,532.2H690l-.7-.4a1.8,1.8,0,0,1-.5-.7,1.9,1.9,0,0,1-.1-.8,2,2,0,0,1,.3-1.1,2,2,0,0,1,1.1-.6h0a1.5,1.5,0,0,1-.9-.6,1.5,1.5,0,0,1-.3-1,1.7,1.7,0,0,1,.5-1.2,2.3,2.3,0,0,1,1.7-.5,2.1,2.1,0,0,1,1.6.5,1.4,1.4,0,0,1,.6,1.2,1.5,1.5,0,0,1-.3,1,1.5,1.5,0,0,1-.9.6h0a1.7,1.7,0,0,1,1,.6,1.5,1.5,0,0,1,.4,1.1,1.9,1.9,0,0,1-.1.8l-.5.7-.8.4Zm0-.7a1.6,1.6,0,0,0,1.1-.3,1,1,0,0,0,.4-.9v-.2a1.3,1.3,0,0,0-.4-1,1.6,1.6,0,0,0-1.1-.3,2.1,2.1,0,0,0-1.2.3,1.8,1.8,0,0,0-.4,1v.2a1.3,1.3,0,0,0,.4.9A2.1,2.1,0,0,0,691.1,531.5Zm0-3.4a1.5,1.5,0,0,0,1-.2,1.3,1.3,0,0,0,.4-.9h0a1,1,0,0,0-.4-.8,1.5,1.5,0,0,0-1-.3,1.3,1.3,0,0,0-1,.3.8.8,0,0,0-.4.8h0a1,1,0,0,0,.4.9C690.3,528.1,690.6,528.1,691.1,528.1Z" transform="translate(-677.4 -329.3)" style="fill:blue"/><path d="M696,532.2c-.3,0-.4,0-.5-.2s-.2-.2-.2-.4v-.2a.4.4,0,0,1,.2-.4.6.6,0,0,1,.5-.2.8.8,0,0,1,.6.2.8.8,0,0,1,.2.4v.2a.5.5,0,0,1-.2.4C696.5,532.2,696.3,532.2,696,532.2Z" transform="translate(-677.4 -329.3)" style="fill:blue"/><path d="M700.7,528.1a1.5,1.5,0,0,0,1-.3.9.9,0,0,0,.4-.8h0a1,1,0,0,0-.3-.8,1.7,1.7,0,0,0-1-.3,1.6,1.6,0,0,0-.9.3,1,1,0,0,0-.5.6l-.6-.5c0-.1.2-.3.3-.4s.3-.2.4-.4l.6-.2h1.6l.7.3a2.1,2.1,0,0,1,.4.6,1.9,1.9,0,0,1,.2.7,3.5,3.5,0,0,1-.1.6l-.3.5-.4.3-.6.2h0l.6.2.5.3.3.5a1.7,1.7,0,0,1,.1.7,1.1,1.1,0,0,1-.2.8,1.6,1.6,0,0,1-.4.7l-.8.4h-1.8l-.6-.2-.5-.4-.3-.4.6-.5.3.4.3.3h1a2.1,2.1,0,0,0,1.2-.3,1.5,1.5,0,0,0,.3-1h0a1.2,1.2,0,0,0-.3-.9,2.1,2.1,0,0,0-1.2-.3h-.8v-.8Z" transform="translate(-677.4 -329.3)" style="fill:blue"/><path d="M710.8,529.6l-1.6,1.6-.5-.5,1.7-1.6-1.7-1.6.5-.5,1.6,1.6,1.7-1.6.4.5-1.6,1.6,1.6,1.6-.4.5Z" transform="translate(-677.4 -329.3)" style="fill:blue"/><path d="M718.6,532.1v-.7h2v-5.6h-.1l-1.7,1.6-.5-.5,1.8-1.7h1.3v6.2h1.8v.7Z" transform="translate(-677.4 -329.3)" style="fill:blue"/><path d="M723.5,532.1v-.7h2v-5.6h-.1l-1.7,1.6-.5-.5,1.8-1.7h1.3v6.2h1.9v.7Z" transform="translate(-677.4 -329.3)" style="fill:blue"/><path d="M730.6,532.2c-.3,0-.5,0-.6-.2s-.1-.2-.1-.4v-.2a.6.6,0,0,1,.1-.4,1,1,0,0,1,1.2,0,.6.6,0,0,1,.1.4v.2c0,.2,0,.3-.1.4S730.9,532.2,730.6,532.2Z" transform="translate(-677.4 -329.3)" style="fill:blue"/><path d="M734.3,532.1l2.7-6.2h-3v1.3h-.8v-2h4.6v.7l-2.6,6.2Z" transform="translate(-677.4 -329.3)" style="fill:blue"/><path d="M743.5,531.4h1.8v-3.7h-1.8V527h2.6v4.4h1.8v.7h-4.4Zm2.2-5.5c-.2,0-.4-.1-.4-.2s-.2-.2-.2-.3v-.2c0-.1.1-.2.2-.3s.2-.2.4-.2a.6.6,0,0,1,.5.2c.1.1.2.2.2.3v.2c0,.1-.1.2-.2.3A.6.6,0,0,1,745.7,525.9Z" transform="translate(-677.4 -329.3)" style="fill:blue"/><path d="M748.4,532.1V527h.8v.8h0l.2-.3.3-.3a.5.5,0,0,1,.4-.2h.5a1.7,1.7,0,0,1,1.3.5,1.6,1.6,0,0,1,.5,1.4v3.3h-.8V529a1.8,1.8,0,0,0-.3-1.1,1.2,1.2,0,0,0-.9-.3h-.9c-.1.1-.2.2-.2.3a.9.9,0,0,0-.1.5v3.5Z" transform="translate(-677.4 -329.3)" style="fill:blue"/><path d="M755.5,532.2a1.6,1.6,0,0,1-1-.2,1.8,1.8,0,0,1-.7-.5,2.2,2.2,0,0,1-.5-.8,4.1,4.1,0,0,1-.1-1.1,3.7,3.7,0,0,1,.1-1.1,2.6,2.6,0,0,1,.5-.9,1.8,1.8,0,0,1,.7-.5l1-.2a2.1,2.1,0,0,1,1.2.3,2.2,2.2,0,0,1,.7.9l-.7.3a.9.9,0,0,0-.4-.6,1.2,1.2,0,0,0-.8-.2h-.7l-.4.3-.3.5a1.3,1.3,0,0,0-.1.6v.9a1.3,1.3,0,0,0,.1.6l.3.5a.5.5,0,0,0,.5.3.8.8,0,0,0,.6.2,1.1,1.1,0,0,0,.8-.3c.3-.1.4-.4.6-.6l.5.3a1.6,1.6,0,0,1-.7.9A2.1,2.1,0,0,1,755.5,532.2Z" transform="translate(-677.4 -329.3)" style="fill:blue"/><path d="M758.2,524.8h.8v3h.1l.2-.3q0-.2.3-.3a.5.5,0,0,1,.4-.2h.5a1.7,1.7,0,0,1,1.3.5,2,2,0,0,1,.5,1.4v3.3h-.8V529a1.8,1.8,0,0,0-.3-1.1,1.2,1.2,0,0,0-.9-.3h-.9l-.3.3c0,.2-.1.3-.1.5v3.5h-.8Z" transform="translate(-677.4 -329.3)" style="fill:blue"/><path d="M765.3,532.2a1.6,1.6,0,0,1-1-.2l-.8-.5a5.6,5.6,0,0,1-.5-.8,4.1,4.1,0,0,1-.1-1.1,3.7,3.7,0,0,1,.1-1.1l.5-.9.8-.5.9-.2,1,.2.7.5a2,2,0,0,1,.4.8,3,3,0,0,1,.2,1v.4h-3.8v.2a1.3,1.3,0,0,0,.1.6l.3.5c.2.2.3.3.5.3l.7.2a1.6,1.6,0,0,0,.9-.3,1.5,1.5,0,0,0,.5-.6l.6.4a1.8,1.8,0,0,1-.7.8A2.8,2.8,0,0,1,765.3,532.2Zm-.1-4.7-.6.2c-.2,0-.3.2-.5.3l-.3.5a1.3,1.3,0,0,0-.1.6h2.9a1.5,1.5,0,0,0-.1-.7.5.5,0,0,0-.3-.4c-.1-.2-.2-.3-.4-.3Z" transform="translate(-677.4 -329.3)" style="fill:blue"/><path d="M770.2,532.2l-1.4-.2a3.9,3.9,0,0,1-1-.8l.5-.4.8.6,1.1.2,1-.2a1,1,0,0,0,.4-.7c0-.1-.1-.2-.1-.3l-.2-.3h-.6l-.8-.2h-.6l-.6-.2a.8.8,0,0,1-.4-.4,1.4,1.4,0,0,1-.2-.7,1.9,1.9,0,0,1,.2-.7c.1-.1.2-.3.4-.4a.9.9,0,0,1,.6-.3h.9l1.2.2.8.6-.5.5c0-.1-.1-.1-.2-.2l-.3-.2-.5-.2h-.6c-.4,0-.7,0-.9.2a.6.6,0,0,0-.3.6.4.4,0,0,0,.1.3.2.2,0,0,0,.2.2c0,.1.1.1.3.1h1.7l.5.3.5.4c.1.1.1.4.1.6a1.3,1.3,0,0,1-.6,1.2A2.2,2.2,0,0,1,770.2,532.2Z" transform="translate(-677.4 -329.3)" style="fill:blue"/></g><g style="isolation:isolate"><path d="M691.1,498.2h-1a2,2,0,0,1-.7-.6,2.2,2.2,0,0,1-.5-.8,3.6,3.6,0,0,1-.2-1.1,4,4,0,0,1,.3-1.5,3.4,3.4,0,0,1,.6-1.2,3.9,3.9,0,0,1,.8-1l.8-.7h1.1l-1,.8-.8.8a4.1,4.1,0,0,0-.5.9,3.6,3.6,0,0,0-.4,1.1h0a2.3,2.3,0,0,1,.7-.7,1.7,1.7,0,0,1,1-.3l.9.2.6.4a1.8,1.8,0,0,1,.5.7,2.2,2.2,0,0,1,.1.9,1.5,1.5,0,0,1-.2.9,1.6,1.6,0,0,1-.4.7l-.8.5Zm0-.7a1.4,1.4,0,0,0,1.1-.4,1.5,1.5,0,0,0,.4-1h0a1.6,1.6,0,0,0-.4-1.1,1.4,1.4,0,0,0-1.1-.4,1.4,1.4,0,0,0-1.5,1.5h0a1.2,1.2,0,0,0,.4,1A1.2,1.2,0,0,0,691.1,497.5Z" transform="translate(-677.4 -329.3)" style="fill:blue"/><path d="M696,498.2c-.3,0-.4,0-.5-.2s-.2-.2-.2-.4v-.2a.4.4,0,0,1,.2-.4.6.6,0,0,1,.5-.2l.6.2a.8.8,0,0,1,.2.4v.2a.5.5,0,0,1-.2.4C696.5,498.2,696.3,498.2,696,498.2Z" transform="translate(-677.4 -329.3)" style="fill:blue"/><path d="M703.3,493.7a6.8,6.8,0,0,1-.2,1.5,13.4,13.4,0,0,1-.6,1.2l-.8,1-.9.7h-1.1l1-.8.8-.8.6-.9.3-1.1h0a2.3,2.3,0,0,1-.7.7,1.5,1.5,0,0,1-1,.3h-.8a1.8,1.8,0,0,1-.7-.5l-.4-.6a2.9,2.9,0,0,1-.2-.9,2,2,0,0,1,.2-.9,2.2,2.2,0,0,1,.5-.8l.7-.4a1.5,1.5,0,0,1,.9-.2l1,.2.8.5a2,2,0,0,1,.4.8A4.3,4.3,0,0,1,703.3,493.7Zm-2.3,1.1a1.5,1.5,0,0,0,1.1-.4,1.6,1.6,0,0,0,.4-1.1h0a1.6,1.6,0,0,0-.4-1.1,1.5,1.5,0,0,0-1.1-.4,1.4,1.4,0,0,0-1.5,1.5h0a1.4,1.4,0,0,0,1.5,1.5Z" transform="translate(-677.4 -329.3)" style="fill:blue"/><path d="M710.8,495.6l-1.6,1.6-.5-.5,1.7-1.6-1.7-1.6.5-.5,1.6,1.6,1.7-1.6.4.5-1.6,1.6,1.6,1.6-.4.5Z" transform="translate(-677.4 -329.3)" style="fill:blue"/><path d="M723.1,493.7a3.7,3.7,0,0,1-.3,1.5,2.7,2.7,0,0,1-.6,1.2,3.9,3.9,0,0,1-.8,1l-.8.7h-1.1l1-.8.8-.8a4.1,4.1,0,0,0,.5-.9,3.6,3.6,0,0,0,.4-1.1h0l-.7.7a1.7,1.7,0,0,1-1,.3h-.9a1.5,1.5,0,0,1-.6-.5l-.5-.6a2.8,2.8,0,0,1-.1-.9,2.2,2.2,0,0,1,.1-.9,5.6,5.6,0,0,1,.5-.8l.8-.4a1.3,1.3,0,0,1,.9-.2l1,.2a1.8,1.8,0,0,1,.7.5,2.2,2.2,0,0,1,.5.8A4.3,4.3,0,0,1,723.1,493.7Zm-2.4,1.1a1.4,1.4,0,0,0,1.5-1.5h0a1.4,1.4,0,0,0-1.5-1.5,1.4,1.4,0,0,0-1.1.4,1.6,1.6,0,0,0-.4,1.1h0a1.6,1.6,0,0,0,.4,1.1A1.4,1.4,0,0,0,720.7,494.8Z" transform="translate(-677.4 -329.3)" style="fill:blue"/><path d="M725.7,498.2c-.3,0-.5,0-.6-.2a.5.5,0,0,1-.2-.4v-.2l.2-.4a.8.8,0,0,1,.6-.2l.5.2.2.4v.2a.5.5,0,0,1-.2.4C726.1,498.2,725.9,498.2,725.7,498.2Z" transform="translate(-677.4 -329.3)" style="fill:blue"/><path d="M730.6,498.2h-1.1l-.7-.4a1.8,1.8,0,0,1-.5-.7,1.9,1.9,0,0,1-.1-.8,1.5,1.5,0,0,1,.4-1.1,1.7,1.7,0,0,1,1-.6h0a1.5,1.5,0,0,1-.9-.6,1.5,1.5,0,0,1-.3-1,1.4,1.4,0,0,1,.6-1.2,2.8,2.8,0,0,1,3.2,0,1.4,1.4,0,0,1,.6,1.2,1.5,1.5,0,0,1-.3,1,1.5,1.5,0,0,1-.9.6h0a1.7,1.7,0,0,1,1,.6,1.5,1.5,0,0,1,.4,1.1,1.9,1.9,0,0,1-.1.8,1.8,1.8,0,0,1-.5.7l-.7.4Zm0-.7a1.6,1.6,0,0,0,1.1-.3,1.1,1.1,0,0,0,.5-.9v-.2a1.8,1.8,0,0,0-.4-1,2.6,2.6,0,0,0-2.4,0,1.8,1.8,0,0,0-.4,1v.2a1.1,1.1,0,0,0,.5.9A1.6,1.6,0,0,0,730.6,497.5Zm0-3.4a1.5,1.5,0,0,0,1-.2,1,1,0,0,0,.4-.9h0a.8.8,0,0,0-.4-.8,1.8,1.8,0,0,0-2,0,.8.8,0,0,0-.4.8h0a1,1,0,0,0,.4.9A1.5,1.5,0,0,0,730.6,494.1Z" transform="translate(-677.4 -329.3)" style="fill:blue"/><path d="M738.6,497.4h1.8v-3.7h-1.8V493h2.6v4.4h1.7v.7h-4.3Zm2.2-5.5-.5-.2a.4.4,0,0,1-.1-.3v-.2a.4.4,0,0,1,.1-.3l.5-.2.5.2a.4.4,0,0,1,.1.3v.2a.4.4,0,0,1-.1.3Z" transform="translate(-677.4 -329.3)" style="fill:blue"/><path d="M743.4,498.1V493h.8v.8h.1c0-.1.1-.2.1-.3l.3-.3.5-.2h.5a1.9,1.9,0,0,1,1.3.5,2,2,0,0,1,.5,1.4v3.3h-.8V495a1.8,1.8,0,0,0-.3-1.1,1.2,1.2,0,0,0-.9-.3h-.9l-.3.3a.9.9,0,0,0-.1.5v3.5Z" transform="translate(-677.4 -329.3)" style="fill:blue"/><path d="M750.5,498.2a1.3,1.3,0,0,1-.9-.2l-.8-.5a2,2,0,0,1-.4-.8,4.3,4.3,0,0,1-.2-1.1,3.6,3.6,0,0,1,.2-1.1,2.5,2.5,0,0,1,.4-.9l.8-.5.9-.2a2.1,2.1,0,0,1,1.2.3,1.6,1.6,0,0,1,.7.9l-.6.3a1,1,0,0,0-.5-.6,1.1,1.1,0,0,0-.8-.2h-.6l-.5.3a.8.8,0,0,0-.2.5,1.3,1.3,0,0,0-.1.6v.9a1.3,1.3,0,0,0,.1.6.8.8,0,0,0,.2.5c.2.2.3.3.5.3l.6.2a1.2,1.2,0,0,0,.9-.3,1.5,1.5,0,0,0,.5-.6l.6.3a2.2,2.2,0,0,1-.7.9A2.3,2.3,0,0,1,750.5,498.2Z" transform="translate(-677.4 -329.3)" style="fill:blue"/><path d="M753.3,490.8h.8v3h0l.2-.3.3-.3.4-.2h.6a2.1,2.1,0,0,1,1.3.5,2,2,0,0,1,.5,1.4v3.3h-.8V495a1.8,1.8,0,0,0-.3-1.1,1.2,1.2,0,0,0-.9-.3h-.9l-.3.3a.9.9,0,0,0-.1.5v3.5h-.8Z" transform="translate(-677.4 -329.3)" style="fill:blue"/><path d="M760.3,498.2a2.2,2.2,0,0,1-1.7-.7,2.2,2.2,0,0,1-.5-.8,4.3,4.3,0,0,1-.2-1.1,3.6,3.6,0,0,1,.2-1.1,2.6,2.6,0,0,1,.5-.9,1.8,1.8,0,0,1,.7-.5l1-.2.9.2a1.8,1.8,0,0,1,.7.5,2.2,2.2,0,0,1,.5.8,3.1,3.1,0,0,1,.1,1v.4h-3.7v.2a1.3,1.3,0,0,0,.1.6,1.2,1.2,0,0,0,.8.8l.6.2a1.2,1.2,0,0,0,.9-.3,1.2,1.2,0,0,0,.6-.6l.6.4a2,2,0,0,1-.8.8A2.5,2.5,0,0,1,760.3,498.2Zm0-4.7-.6.2a.9.9,0,0,0-.5.3l-.3.5a1.3,1.3,0,0,0-.1.6h2.9a1.5,1.5,0,0,0-.1-.7l-.3-.4a.5.5,0,0,0-.4-.3Z" transform="translate(-677.4 -329.3)" style="fill:blue"/><path d="M765.2,498.2l-1.3-.2a2.7,2.7,0,0,1-1-.8l.5-.4.8.6,1.1.2.9-.2a.8.8,0,0,0,.4-.7.4.4,0,0,0-.1-.3l-.2-.3h-.6l-.8-.2h-.6l-.5-.2a1,1,0,0,1-.5-.4,1.5,1.5,0,0,1-.1-.7,1.7,1.7,0,0,1,.1-.7l.4-.4a.9.9,0,0,1,.7-.3h.8l1.2.2.9.6-.5.5c-.1-.1-.2-.1-.2-.2l-.4-.2-.4-.2h-.6c-.4,0-.7,0-.9.2a.5.5,0,0,0-.4.6c0,.1.1.2.1.3s.1.2.2.2h2l.6.3a.8.8,0,0,1,.4.4,1.1,1.1,0,0,1,.2.6,1.3,1.3,0,0,1-.6,1.2A2.5,2.5,0,0,1,765.2,498.2Z" transform="translate(-677.4 -329.3)" style="fill:blue"/></g><g style="isolation:isolate"><path d="M946.4,739.9l4.4-11.4h1.6l4.7,11.4h-1.7l-1.4-3.4h-4.7l-1.3,3.4Zm3.3-4.7h3.9l-1.2-3.2a10.6,10.6,0,0,1-.8-2.3c-.2.7-.4,1.4-.7,2.2Z" transform="translate(-677.4 -329.3)" style="fill:blue"/><path d="M965.1,738.6v1.3h-7.5a3.8,3.8,0,0,1,.1-1,4.4,4.4,0,0,1,1-1.5,10,10,0,0,1,1.8-1.7,14.6,14.6,0,0,0,2.5-2.4,2.7,2.7,0,0,0,.7-1.7,1.7,1.7,0,0,0-.6-1.4,2.4,2.4,0,0,0-3.2,0,2.4,2.4,0,0,0-.6,1.7l-1.5-.2a3.6,3.6,0,0,1,1.1-2.4,3.9,3.9,0,0,1,2.6-.9,4,4,0,0,1,2.7.9,3.2,3.2,0,0,1,.9,2.3,3.5,3.5,0,0,1-.3,1.4,3.4,3.4,0,0,1-.9,1.3,23.9,23.9,0,0,1-2.2,2.1l-1.6,1.4-.6.8Z" transform="translate(-677.4 -329.3)" style="fill:blue"/></g><g style="isolation:isolate"><path d="M901.6,675.9V664.5h4.3a5.8,5.8,0,0,1,2.1.3,2.5,2.5,0,0,1,1.2,1.1,3,3,0,0,1,.5,1.5,3.7,3.7,0,0,1-.4,1.4,2.9,2.9,0,0,1-1.2,1,2.8,2.8,0,0,1,2.1,2.8,4,4,0,0,1-.3,1.5,3.1,3.1,0,0,1-.8,1.1l-1.3.5a5.3,5.3,0,0,1-1.9.2Zm1.5-6.6h2.5l1.4-.2a1.9,1.9,0,0,0,.9-.5,1.8,1.8,0,0,0,0-2,1.2,1.2,0,0,0-.8-.6l-1.7-.2h-2.3Zm0,5.3H907a3.2,3.2,0,0,0,.9-.3,1.5,1.5,0,0,0,.5-.6,1.7,1.7,0,0,0,.3-1,1.5,1.5,0,0,0-.4-1.1,1.6,1.6,0,0,0-.9-.7l-1.7-.2h-2.6Z" transform="translate(-677.4 -329.3)" style="fill:blue"/><path d="M911.8,672.9l1.4-.2a2.5,2.5,0,0,0,.8,1.7,1.8,1.8,0,0,0,1.4.6,2.6,2.6,0,0,0,1.7-.7,2.8,2.8,0,0,0,.7-1.7,1.9,1.9,0,0,0-.7-1.6,2.2,2.2,0,0,0-1.6-.7l-1,.2.2-1.2h.2a3,3,0,0,0,1.6-.5,1.5,1.5,0,0,0,.7-1.4,1.4,1.4,0,0,0-.5-1.3,1.5,1.5,0,0,0-1.3-.5,1.7,1.7,0,0,0-1.4.5,2.4,2.4,0,0,0-.7,1.5l-1.4-.2a3.6,3.6,0,0,1,1.2-2.2,3.3,3.3,0,0,1,2.2-.8,5.3,5.3,0,0,1,1.8.4,4.3,4.3,0,0,1,1.2,1.1,2.8,2.8,0,0,1,.4,1.5,2,2,0,0,1-.4,1.3,2.3,2.3,0,0,1-1.2,1,2.9,2.9,0,0,1,1.6,1,2.8,2.8,0,0,1,.6,1.8,3.6,3.6,0,0,1-1.1,2.6,4,4,0,0,1-2.8,1,3.7,3.7,0,0,1-2.5-.9A3,3,0,0,1,911.8,672.9Z" transform="translate(-677.4 -329.3)" style="fill:blue"/></g><g style="isolation:isolate"><path d="M860.4,618.9l4.4-11.4h1.6l4.7,11.4h-1.7l-1.4-3.4h-4.7l-1.3,3.4Zm3.3-4.7h3.9l-1.2-3.2a10.6,10.6,0,0,1-.8-2.3c-.2.7-.4,1.4-.7,2.2Z" transform="translate(-677.4 -329.3)" style="fill:blue"/><path d="M871.8,615.9l1.4-.2a2.5,2.5,0,0,0,.8,1.7,1.8,1.8,0,0,0,1.4.6,2.6,2.6,0,0,0,1.7-.7,2.8,2.8,0,0,0,.7-1.7,1.9,1.9,0,0,0-.7-1.6,2.2,2.2,0,0,0-1.6-.7l-1,.2.2-1.2h.2a3,3,0,0,0,1.6-.5,1.5,1.5,0,0,0,.7-1.4,1.4,1.4,0,0,0-.5-1.3,1.5,1.5,0,0,0-1.3-.5,1.7,1.7,0,0,0-1.4.5,2.4,2.4,0,0,0-.7,1.5l-1.4-.2a3.6,3.6,0,0,1,1.2-2.2,3.3,3.3,0,0,1,2.2-.8,5.3,5.3,0,0,1,1.8.4,4.3,4.3,0,0,1,1.2,1.1,2.8,2.8,0,0,1,.4,1.5,2,2,0,0,1-.4,1.3,2.3,2.3,0,0,1-1.2,1,2.9,2.9,0,0,1,1.6,1,2.8,2.8,0,0,1,.6,1.8,3.6,3.6,0,0,1-1.1,2.6,4,4,0,0,1-2.8,1,3.7,3.7,0,0,1-2.5-.9A3,3,0,0,1,871.8,615.9Z" transform="translate(-677.4 -329.3)" style="fill:blue"/></g><g style="isolation:isolate"><path d="M826.6,572.9V561.5h4.3a5.8,5.8,0,0,1,2.1.3,2.5,2.5,0,0,1,1.2,1.1,3,3,0,0,1,.5,1.5,3.7,3.7,0,0,1-.4,1.4,2.9,2.9,0,0,1-1.2,1,2.8,2.8,0,0,1,2.1,2.8,4,4,0,0,1-.3,1.5,3.1,3.1,0,0,1-.8,1.1l-1.3.5a5.3,5.3,0,0,1-1.9.2Zm1.5-6.6h2.5l1.4-.2a1.9,1.9,0,0,0,.9-.5,1.8,1.8,0,0,0,0-2,1.2,1.2,0,0,0-.8-.6l-1.7-.2h-2.3Zm0,5.3H832a3.2,3.2,0,0,0,.9-.3,1.5,1.5,0,0,0,.5-.6,1.7,1.7,0,0,0,.3-1,1.5,1.5,0,0,0-.4-1.1,1.6,1.6,0,0,0-.9-.7l-1.7-.2h-2.6Z" transform="translate(-677.4 -329.3)" style="fill:blue"/><path d="M841.3,572.9v-2.7h-5v-1.3l5.2-7.4h1.2v7.4h1.5v1.3h-1.5v2.7Zm0-4v-5.2l-3.6,5.2Z" transform="translate(-677.4 -329.3)" style="fill:blue"/></g><g style="isolation:isolate"><path d="M800.4,531.9l4.4-11.4h1.6l4.7,11.4h-1.7l-1.4-3.4h-4.7l-1.3,3.4Zm3.3-4.7h3.9l-1.2-3.2a10.6,10.6,0,0,1-.8-2.3c-.2.7-.4,1.4-.7,2.2Z" transform="translate(-677.4 -329.3)" style="fill:blue"/><path d="M816.3,531.9v-2.7h-5v-1.3l5.2-7.4h1.2v7.4h1.5v1.3h-1.5v2.7Zm0-4v-5.2l-3.6,5.2Z" transform="translate(-677.4 -329.3)" style="fill:blue"/></g><g style="isolation:isolate"><path d="M776.6,497.9V486.5h4.3a5.8,5.8,0,0,1,2.1.3,2.5,2.5,0,0,1,1.2,1.1,3,3,0,0,1,.5,1.5,3.7,3.7,0,0,1-.4,1.4,2.9,2.9,0,0,1-1.2,1,2.8,2.8,0,0,1,2.1,2.8,4,4,0,0,1-.3,1.5,3.1,3.1,0,0,1-.8,1.1l-1.3.5a5.3,5.3,0,0,1-1.9.2Zm1.5-6.6h2.5l1.4-.2a1.9,1.9,0,0,0,.9-.5,1.8,1.8,0,0,0,0-2,1.2,1.2,0,0,0-.8-.6l-1.7-.2h-2.3Zm0,5.3H782l.9-.3a1.5,1.5,0,0,0,.5-.6,1.7,1.7,0,0,0,.3-1,1.5,1.5,0,0,0-.4-1.1,1.6,1.6,0,0,0-.9-.7l-1.7-.2h-2.6Z" transform="translate(-677.4 -329.3)" style="fill:blue"/><path d="M786.7,494.9h1.5a2.4,2.4,0,0,0,.8,1.6,2,2,0,0,0,1.4.6,2.1,2.1,0,0,0,1.7-.8,3.3,3.3,0,0,0,.1-3.9,2.4,2.4,0,0,0-1.8-.7,2.1,2.1,0,0,0-1.2.3,1.8,1.8,0,0,0-.9.8l-1.3-.2,1.1-5.9h5.7V488h-4.6l-.6,3a4.4,4.4,0,0,1,2.2-.7,3.6,3.6,0,0,1,3.5,3.7,4,4,0,0,1-.9,2.7,3.4,3.4,0,0,1-3,1.4,3.5,3.5,0,0,1-2.5-.9A3.1,3.1,0,0,1,786.7,494.9Z" transform="translate(-677.4 -329.3)" style="fill:blue"/></g><polyline points="177.2 0.7 177.2 250.8 0 250.8" style="fill:none;stroke:blue;stroke-miterlimit:10;stroke-dasharray:6"/><polyline points="150 0.5 150 211 1.2 211" style="fill:none;stroke:blue;stroke-miterlimit:10"/><polyline points="125.4 1.2 125.4 178.3 0.7 178.3" style="fill:none;stroke:blue;stroke-miterlimit:10;stroke-dasharray:6"/><rect x="332.4" y="78.3" width="233.1" height="342.3" style="fill:none;stroke:blue;stroke-miterlimit:10"/></svg>